
<svg xmlns="http://www.w3.org/2000/svg" viewBox="0 0 200 200"><path fill="#242D3C" d="m27.8 69.543-7.078-.976a79.84 79.84 0 0 1 1.342-7.237l6.959 1.629a72.571 72.571 0 0 0-1.223 6.584zm143.732-.098a73.574 73.574 0 0 0-1.233-6.583l6.956-1.636a79.686 79.686 0 0 1 1.352 7.231l-7.075.988zM30.85 56.517l-6.776-2.268a79.809 79.809 0 0 1 2.658-6.866l6.535 2.891a71.812 71.812 0 0 0-2.417 6.243zm137.618-.091a71.644 71.644 0 0 0-2.429-6.239l6.533-2.9a80.288 80.288 0 0 1 2.667 6.86l-6.771 2.279zM36.259 44.289l-6.236-3.488a79.93 79.93 0 0 1 3.886-6.25l5.887 4.051a73.19 73.19 0 0 0-3.537 5.687zm126.779-.087a72.355 72.355 0 0 0-3.544-5.682l5.881-4.059a79.579 79.579 0 0 1 3.896 6.245l-6.233 3.496zM43.844 33.266l-5.489-4.576a81.428 81.428 0 0 1 4.955-5.425l5.054 5.051a74.164 74.164 0 0 0-4.52 4.95zm111.593-.079a74.294 74.294 0 0 0-4.455-4.871l4.977-5.128.076.076a81.97 81.97 0 0 1 4.887 5.341l-5.485 4.582zM53.315 23.794l-4.573-5.491a79.877 79.877 0 0 1 5.862-4.444l4.051 5.885a74.038 74.038 0 0 0-5.34 4.05zm92.638-.063a73.39 73.39 0 0 0-5.344-4.041l4.045-5.892a80.614 80.614 0 0 1 5.865 4.438l-4.566 5.495zM64.34 16.209l-3.486-6.237a79.361 79.361 0 0 1 6.584-3.289l2.892 6.534a72.056 72.056 0 0 0-5.99 2.992zm70.578-.046a71.998 71.998 0 0 0-5.991-2.984l2.881-6.539a78.22 78.22 0 0 1 6.592 3.282l-3.482 6.241zM76.57 10.8l-2.266-6.776a78.775 78.775 0 0 1 7.081-2.01l1.626 6.959A72.652 72.652 0 0 0 76.57 10.8zm46.111-.032a72.22 72.22 0 0 0-6.443-1.817l1.62-6.959a79.881 79.881 0 0 1 7.084 1.999l-2.261 6.777zM89.596 7.754 88.618.676A80.656 80.656 0 0 1 95.94.004l.329 7.139a73.575 73.575 0 0 0-6.673.611zm20.056-.015a73.648 73.648 0 0 0-6.677-.6L103.293 0c2.446.109 4.908.331 7.325.66l-.966 7.079zM172.234 75.895h7.147v7.146h-7.147zM19.964 75.895h7.146v7.146h-7.146z"/><path fill="#F96232" d="M138.896 40.408C128.061 29.58 113.87 24.165 99.672 24.165c-14.191 0-28.388 5.415-39.218 16.243C49.625 51.237 44.207 65.43 44.207 79.631v88.084h110.925V79.631c0-14.201-5.414-28.394-16.236-39.223z"/><path fill="#FFF" d="m74.05 54.004-5.053-5.051c8.186-8.192 19.08-12.702 30.675-12.702v7.146c-9.684-.001-18.785 3.766-25.622 10.607zM63.441 79.631h-7.146c0-8.277 2.329-16.31 6.733-23.232l6.03 3.836c-3.675 5.772-5.617 12.48-5.617 19.396z"/><path fill="#242D3C" d="M175.021 200H24.32v-15.97a19.746 19.746 0 0 1 5.828-14.062 19.752 19.752 0 0 1 14.058-5.826h110.925c5.319 0 10.317 2.07 14.069 5.829a19.752 19.752 0 0 1 5.82 14.059V200zm-143.555-7.146h136.41v-8.824c0-3.402-1.324-6.604-3.729-9.008a12.655 12.655 0 0 0-9.016-3.732H44.207c-3.399 0-6.6 1.325-9.007 3.732a12.654 12.654 0 0 0-3.733 9.008v8.824z"/><path fill="#242D3C" d="M15.169 192.854h169.662V200H15.169z"/><g fill="#242D3C"><path d="M96.1 122.04h7.146v45.675H96.1z"/><path d="M99.672 125.612c-11.686 0-21.194-9.505-21.194-21.188 0-11.686 9.508-21.192 21.194-21.192 11.684 0 21.188 9.506 21.188 21.192 0 11.683-9.504 21.188-21.188 21.188zm0-35.234c-7.746 0-14.048 6.301-14.048 14.047 0 7.743 6.303 14.042 14.048 14.042 7.743 0 14.042-6.299 14.042-14.042.001-7.746-6.299-14.047-14.042-14.047z"/></g></svg>